<svg id="图层_1" data-name="图层 1" xmlns="http://www.w3.org/2000/svg" viewBox="0 0 272.03 272.03"><defs><style>.cls-1{fill:#231815;}</style></defs><title>未标题-1</title><path class="cls-1" d="M261.77,88.17A46.4,46.4,0,0,0,241.45,75.1q-12.24-4-28.73-4H189.34V224.31h20.32q66,0,68.09-71.9v-9.95q-.45-17.81-3.91-30.61Q269.87,97.18,261.77,88.17Z" transform="translate(-5.72 -5.72)"/><path class="cls-1" d="M265.28,234.09A97.07,97.07,0,0,1,239,244.25a146.32,146.32,0,0,1-34.07,3.59h-54.6L120.54,184a71.47,71.47,0,0,0-6.88-12.15,33.05,33.05,0,0,0-7.56-7.64,27.17,27.17,0,0,0-8.87-4.05,44,44,0,0,0-10.77-1.22H73.63v88.93H46.43V48.13H99.91q17.41,0,30,3.82t20.55,10.7a41,41,0,0,1,11.73,16.51v-31h51.5Q255,48.13,277.75,67V30.49A24.85,24.85,0,0,0,253,5.72H30.49A24.85,24.85,0,0,0,5.72,30.49V253a24.85,24.85,0,0,0,24.77,24.77H253A24.85,24.85,0,0,0,277.75,253V225.09A76.09,76.09,0,0,1,265.28,234.09Z" transform="translate(-5.72 -5.72)"/><path class="cls-1" d="M137.42,162.81a109.59,109.59,0,0,1,12,19.33l12.73,26.44V121.13A48.17,48.17,0,0,1,155,133.47a51.88,51.88,0,0,1-13.44,11.77,61.51,61.51,0,0,1-18.42,7.41A31.26,31.26,0,0,1,137.42,162.81Z" transform="translate(-5.72 -5.72)"/><path class="cls-1" d="M134.52,117.58a34,34,0,0,0,3-14.59q0-16-10-24t-28.19-8H73.63v66h22A63,63,0,0,0,113,134.85a37,37,0,0,0,13.14-6.57A29.83,29.83,0,0,0,134.52,117.58Z" transform="translate(-5.72 -5.72)"/></svg>